<svg xmlns:xlink="http://www.w3.org/1999/xlink" xmlns="http://www.w3.org/2000/svg" width="14" height="14" viewBox="0 0 14 14">
    <g>
      <g>
        <g>
          <path d="M9.368 3.66a2.443 2.443 0 0 1-2.445 2.445A2.443 2.443 0 0 1 4.478 3.66a2.443 2.443 0 0 1 2.445-2.445A2.443 2.443 0 0 1 9.368 3.66zm-6.105 0c0 2.02 1.64 3.66 3.66 3.66 2.02 0 3.66-1.64 3.66-3.66 0-2.02-1.64-3.66-3.66-3.66-2.02 0-3.66 1.64-3.66 3.66z"></path>
        </g>
        <g>
          <path d="M1.152 13.182a.61.61 0 0 0 .607-.607c0-.972.471-1.868 1.246-2.415a6.908 6.908 0 0 1 3.918-1.215 6.81 6.81 0 0 1 3.918 1.23 2.951 2.951 0 0 1 1.245 2.415.61.61 0 0 0 .608.607.61.61 0 0 0 .607-.607 4.168 4.168 0 0 0-1.761-3.402A8.007 8.007 0 0 0 6.923 7.73c-1.655 0-3.25.501-4.617 1.443a4.189 4.189 0 0 0-1.762 3.402.6.6 0 0 0 .608.607z"></path>
        </g>
      </g>
    </g>
  </svg>